<svg width="150" height="59" viewBox="0 0 150 59" fill="none" xmlns="http://www.w3.org/2000/svg">
<path d="M149.5 29.3045C149.5 33.1644 147.5 36.8953 143.767 40.3439C140.033 43.793 134.603 46.9221 127.851 49.5603C114.35 54.8355 95.6646 58.1091 75 58.1091C54.3354 58.1091 35.65 54.8355 22.149 49.5603C15.3969 46.9221 9.96678 43.793 6.23315 40.3439C2.50006 36.8953 0.5 33.1644 0.5 29.3045C0.5 25.4447 2.50006 21.7137 6.23315 18.2652C9.96678 14.8161 15.3969 11.687 22.149 9.04881C35.65 3.77361 54.3354 0.5 75 0.5C95.6646 0.5 114.35 3.77361 127.851 9.04881C134.603 11.687 140.033 14.8161 143.767 18.2652C147.5 21.7137 149.5 25.4447 149.5 29.3045Z" stroke="white" stroke-opacity="0.5"/>
<path d="M46.7726 37.2328C46.5806 37.9368 46.4846 38.4968 46.4846 38.9128C46.4846 39.4568 46.6526 39.8248 46.9886 40.0168C47.3406 40.2088 47.9006 40.3048 48.6686 40.3048L48.3806 41.2648H40.7246L40.9886 40.3048C41.4686 40.3048 41.8766 40.2728 42.2126 40.2088C42.5486 40.1288 42.8366 39.9848 43.0766 39.7768C43.3326 39.5688 43.5486 39.2808 43.7246 38.9128C43.9006 38.5448 44.0686 38.0648 44.2286 37.4728L45.5486 32.4568H36.2366L34.9886 37.2328C34.7966 37.9368 34.7006 38.4968 34.7006 38.9128C34.7006 39.4568 34.8686 39.8248 35.2046 40.0168C35.5566 40.2088 36.1246 40.3048 36.9086 40.3048L36.5966 41.2648H28.9406L29.2046 40.3048C29.6846 40.3048 30.0926 40.2728 30.4286 40.2088C30.7646 40.1288 31.0526 39.9848 31.2926 39.7768C31.5486 39.5688 31.7646 39.2808 31.9406 38.9128C32.1166 38.5448 32.2846 38.0648 32.4446 37.4728L35.2526 26.8648C35.4926 25.9848 35.6126 25.3288 35.6126 24.8968C35.6126 24.4008 35.4286 24.0888 35.0606 23.9608C34.7086 23.8168 34.1006 23.7448 33.2366 23.7448L33.5006 22.7848H41.3006L41.0366 23.7448C40.5086 23.7448 40.0686 23.8008 39.7166 23.9128C39.3646 24.0088 39.0606 24.2008 38.8046 24.4888C38.5486 24.7768 38.3166 25.1768 38.1086 25.6888C37.9166 26.2008 37.7166 26.8648 37.5086 27.6808L36.5726 31.2328H45.8846L47.0366 26.8648C47.2766 25.9848 47.3966 25.3288 47.3966 24.8968C47.3966 24.4008 47.2126 24.0888 46.8446 23.9608C46.4926 23.8168 45.8846 23.7448 45.0206 23.7448L45.2846 22.7848H53.0846L52.8206 23.7448C52.2926 23.7448 51.8526 23.8008 51.5006 23.9128C51.1486 24.0088 50.8446 24.2008 50.5886 24.4888C50.3326 24.7768 50.1006 25.1768 49.8926 25.6888C49.7006 26.2008 49.5006 26.8648 49.2926 27.6808L46.7726 37.2328Z" fill="white"/>
<path d="M59.4697 38.0728C58.0777 40.3608 56.3657 41.5048 54.3337 41.5048C53.2297 41.5048 52.3817 41.1688 51.7897 40.4968C51.1977 39.8088 50.9017 38.8408 50.9017 37.5928C50.9017 36.4888 51.1257 35.3848 51.5737 34.2808C52.0377 33.1768 52.6377 32.1848 53.3737 31.3048C54.1097 30.4088 54.9337 29.6888 55.8457 29.1448C56.7577 28.5848 57.6697 28.3048 58.5817 28.3048C59.3497 28.3048 59.9737 28.5048 60.4537 28.9048C60.9497 29.2888 61.1977 29.7848 61.1977 30.3928C61.1977 30.9528 60.9897 31.5288 60.5737 32.1208C60.1577 32.7128 59.5897 33.2728 58.8697 33.8008C58.1657 34.3288 57.3337 34.8088 56.3737 35.2408C55.4297 35.6728 54.4217 36.0088 53.3497 36.2488C53.3177 36.4728 53.2937 36.6968 53.2777 36.9208C53.2617 37.1288 53.2537 37.3448 53.2537 37.5688C53.2537 39.3128 53.8697 40.1848 55.1017 40.1848C55.6937 40.1848 56.3017 39.9528 56.9257 39.4888C57.5657 39.0248 58.1577 38.3848 58.7017 37.5688L59.4697 38.0728ZM58.1017 29.4328C57.6857 29.4328 57.2537 29.5928 56.8057 29.9128C56.3577 30.2328 55.9257 30.6648 55.5097 31.2088C55.1097 31.7368 54.7417 32.3448 54.4057 33.0328C54.0697 33.7208 53.7977 34.4328 53.5897 35.1688C54.3577 34.9608 55.0697 34.6888 55.7257 34.3528C56.3817 34.0168 56.9417 33.6408 57.4057 33.2248C57.8857 32.7928 58.2617 32.3448 58.5337 31.8808C58.8057 31.4008 58.9417 30.9208 58.9417 30.4408C58.9417 29.7688 58.6617 29.4328 58.1017 29.4328Z" fill="white"/>
<path d="M65.903 24.6808C65.983 24.3928 66.063 24.1048 66.1431 23.8168C66.2231 23.5128 66.2631 23.2888 66.2631 23.1448C66.2631 22.5848 65.655 22.3048 64.439 22.3048L64.6311 21.5848L69.0231 21.3688L64.7271 37.1368C64.5991 37.5688 64.503 37.9528 64.439 38.2888C64.375 38.6088 64.3431 38.8808 64.3431 39.1048C64.3431 39.2488 64.383 39.3768 64.4631 39.4888C64.5431 39.6008 64.6711 39.6568 64.847 39.6568C65.1031 39.6568 65.3751 39.5528 65.6631 39.3448C65.951 39.1208 66.223 38.8648 66.479 38.5768C66.751 38.2728 66.9911 37.9688 67.1991 37.6648C67.4071 37.3448 67.5591 37.0968 67.6551 36.9208L68.375 37.3288C68.135 37.8728 67.823 38.4008 67.439 38.9128C67.055 39.4088 66.647 39.8488 66.215 40.2328C65.7831 40.6168 65.3431 40.9288 64.8951 41.1688C64.4631 41.3928 64.063 41.5048 63.695 41.5048C63.135 41.5048 62.7191 41.3848 62.4471 41.1448C62.1911 40.9048 62.063 40.5048 62.063 39.9448C62.063 39.6248 62.111 39.1928 62.2071 38.6488C62.3031 38.1048 62.4711 37.3608 62.7111 36.4168L65.903 24.6808Z" fill="white"/>
<path d="M77.9385 38.0728C76.5465 40.3608 74.8345 41.5048 72.8025 41.5048C71.6985 41.5048 70.8505 41.1688 70.2585 40.4968C69.6665 39.8088 69.3705 38.8408 69.3705 37.5928C69.3705 36.4888 69.5945 35.3848 70.0425 34.2808C70.5065 33.1768 71.1065 32.1848 71.8425 31.3048C72.5785 30.4088 73.4025 29.6888 74.3145 29.1448C75.2265 28.5848 76.1385 28.3048 77.0505 28.3048C77.8185 28.3048 78.4425 28.5048 78.9225 28.9048C79.4185 29.2888 79.6665 29.7848 79.6665 30.3928C79.6665 30.9528 79.4585 31.5288 79.0425 32.1208C78.6265 32.7128 78.0585 33.2728 77.3385 33.8008C76.6345 34.3288 75.8025 34.8088 74.8425 35.2408C73.8985 35.6728 72.8905 36.0088 71.8185 36.2488C71.7865 36.4728 71.7625 36.6968 71.7465 36.9208C71.7305 37.1288 71.7225 37.3448 71.7225 37.5688C71.7225 39.3128 72.3385 40.1848 73.5705 40.1848C74.1625 40.1848 74.7705 39.9528 75.3945 39.4888C76.0345 39.0248 76.6265 38.3848 77.1705 37.5688L77.9385 38.0728ZM76.5705 29.4328C76.1545 29.4328 75.7225 29.5928 75.2745 29.9128C74.8265 30.2328 74.3945 30.6648 73.9785 31.2088C73.5785 31.7368 73.2105 32.3448 72.8745 33.0328C72.5385 33.7208 72.2665 34.4328 72.0585 35.1688C72.8265 34.9608 73.5385 34.6888 74.1945 34.3528C74.8505 34.0168 75.4105 33.6408 75.8745 33.2248C76.3545 32.7928 76.7305 32.3448 77.0025 31.8808C77.2745 31.4008 77.4105 30.9208 77.4105 30.4408C77.4105 29.7688 77.1305 29.4328 76.5705 29.4328Z" fill="white"/>
<path d="M91.0438 32.6968C91.0438 32.3768 91.0118 32.0888 90.9478 31.8328C90.8998 31.5608 90.8358 31.3048 90.7558 31.0648C90.6918 30.8248 90.6278 30.5928 90.5638 30.3688C90.5158 30.1448 90.4918 29.9128 90.4918 29.6728C90.4918 28.7608 90.9078 28.3048 91.7398 28.3048C92.2358 28.3048 92.5878 28.4808 92.7958 28.8328C93.0198 29.1848 93.1318 29.7688 93.1318 30.5848C93.1318 31.4328 93.0278 32.2968 92.8198 33.1768C92.6118 34.0408 92.3238 34.8808 91.9558 35.6968C91.5878 36.4968 91.1558 37.2488 90.6598 37.9528C90.1638 38.6568 89.6358 39.2728 89.0758 39.8008C88.5158 40.3288 87.9318 40.7448 87.3238 41.0488C86.7318 41.3528 86.1398 41.5048 85.5478 41.5048C85.1158 41.5048 84.7078 41.4248 84.3238 41.2648C83.9558 41.0888 83.6358 40.8488 83.3638 40.5448C83.0918 40.2408 82.8758 39.8808 82.7158 39.4648C82.5718 39.0488 82.4998 38.6008 82.4998 38.1208C82.4998 37.2088 82.7478 36.1368 83.2438 34.9048C83.7398 33.6728 84.4438 32.4008 85.3558 31.0888L85.3078 31.0168C84.8758 31.0168 84.5158 30.9528 84.2278 30.8248C83.9398 30.6968 83.6918 30.5528 83.4838 30.3928C83.2918 30.2328 83.1158 30.0888 82.9558 29.9608C82.8118 29.8328 82.6598 29.7688 82.4998 29.7688C82.2278 29.7688 82.0918 29.9048 82.0918 30.1768C82.0918 30.3208 82.1318 30.4488 82.2118 30.5608C82.3078 30.6728 82.4038 30.7848 82.4998 30.8968C82.6118 31.0088 82.7078 31.1368 82.7878 31.2808C82.8838 31.4088 82.9318 31.5688 82.9318 31.7608C82.9318 32.0488 82.8198 32.2888 82.5958 32.4808C82.3718 32.6568 82.0838 32.7448 81.7318 32.7448C81.3158 32.7448 80.9958 32.6168 80.7718 32.3608C80.5478 32.1048 80.4358 31.7448 80.4358 31.2808C80.4358 30.8808 80.5158 30.5048 80.6758 30.1528C80.8358 29.7848 81.0518 29.4648 81.3238 29.1928C81.5958 28.9208 81.9078 28.7048 82.2598 28.5448C82.6278 28.3848 83.0118 28.3048 83.4118 28.3048C83.7318 28.3048 84.0038 28.3608 84.2278 28.4728C84.4518 28.5688 84.6598 28.6888 84.8518 28.8328C85.0438 28.9608 85.2278 29.0808 85.4038 29.1928C85.5958 29.2888 85.8198 29.3368 86.0758 29.3368C86.3798 29.3368 86.6518 29.2168 86.8918 28.9768C87.2278 28.6728 87.4518 28.4888 87.5638 28.4248C87.6918 28.3448 87.8518 28.3048 88.0438 28.3048C88.3638 28.3048 88.5238 28.4408 88.5238 28.7128C88.5238 28.7768 88.5158 28.8328 88.4998 28.8808C88.4838 28.9288 88.4438 29.0008 88.3798 29.0968C88.3318 29.1928 88.2358 29.3208 88.0918 29.4808C87.9638 29.6408 87.7798 29.8648 87.5398 30.1528C87.1718 30.6008 86.8358 31.1048 86.5318 31.6648C86.2278 32.2248 85.9638 32.8088 85.7398 33.4168C85.5158 34.0248 85.3398 34.6408 85.2118 35.2648C85.0838 35.8728 85.0198 36.4488 85.0198 36.9928C85.0198 37.8568 85.1638 38.5528 85.4518 39.0808C85.7558 39.5928 86.1398 39.8488 86.6038 39.8488C87.0518 39.8488 87.5318 39.6088 88.0438 39.1288C88.5558 38.6488 89.0358 38.0568 89.4838 37.3528C89.9318 36.6328 90.2998 35.8568 90.5878 35.0248C90.8918 34.1928 91.0438 33.4168 91.0438 32.6968Z" fill="white"/>
<path d="M102.759 38.0728C101.367 40.3608 99.6548 41.5048 97.6228 41.5048C96.5188 41.5048 95.6708 41.1688 95.0788 40.4968C94.4868 39.8088 94.1908 38.8408 94.1908 37.5928C94.1908 36.4888 94.4148 35.3848 94.8628 34.2808C95.3268 33.1768 95.9268 32.1848 96.6628 31.3048C97.3988 30.4088 98.2228 29.6888 99.1348 29.1448C100.047 28.5848 100.959 28.3048 101.871 28.3048C102.639 28.3048 103.263 28.5048 103.743 28.9048C104.239 29.2888 104.487 29.7848 104.487 30.3928C104.487 30.9528 104.279 31.5288 103.863 32.1208C103.447 32.7128 102.879 33.2728 102.159 33.8008C101.455 34.3288 100.623 34.8088 99.6628 35.2408C98.7188 35.6728 97.7108 36.0088 96.6388 36.2488C96.6068 36.4728 96.5828 36.6968 96.5668 36.9208C96.5508 37.1288 96.5428 37.3448 96.5428 37.5688C96.5428 39.3128 97.1588 40.1848 98.3908 40.1848C98.9828 40.1848 99.5908 39.9528 100.215 39.4888C100.855 39.0248 101.447 38.3848 101.991 37.5688L102.759 38.0728ZM101.391 29.4328C100.975 29.4328 100.543 29.5928 100.095 29.9128C99.6468 30.2328 99.2148 30.6648 98.7988 31.2088C98.3988 31.7368 98.0308 32.3448 97.6948 33.0328C97.3588 33.7208 97.0868 34.4328 96.8788 35.1688C97.6468 34.9608 98.3588 34.6888 99.0148 34.3528C99.6708 34.0168 100.231 33.6408 100.695 33.2248C101.175 32.7928 101.551 32.3448 101.823 31.8808C102.095 31.4008 102.231 30.9208 102.231 30.4408C102.231 29.7688 101.951 29.4328 101.391 29.4328Z" fill="white"/>
<path d="M105.304 31.8808C105.48 31.4808 105.744 31.0728 106.096 30.6568C106.464 30.2248 106.856 29.8408 107.272 29.5048C107.704 29.1528 108.136 28.8648 108.568 28.6408C109 28.4168 109.376 28.3048 109.696 28.3048C110.08 28.3048 110.36 28.4488 110.536 28.7368C110.712 29.0248 110.8 29.4888 110.8 30.1288C110.8 30.3848 110.784 30.6328 110.752 30.8728C110.736 31.1128 110.696 31.3928 110.632 31.7128L110.704 31.7848C110.896 31.3208 111.168 30.8648 111.52 30.4168C111.872 29.9688 112.248 29.5768 112.648 29.2408C113.064 28.8888 113.48 28.6088 113.896 28.4008C114.328 28.1768 114.728 28.0648 115.096 28.0648C115.56 28.0648 115.944 28.2168 116.248 28.5208C116.568 28.8088 116.728 29.1688 116.728 29.6008C116.728 30.0168 116.592 30.3608 116.32 30.6328C116.064 30.9048 115.728 31.0408 115.312 31.0408C115.056 31.0408 114.848 30.9928 114.688 30.8968C114.544 30.8008 114.416 30.7048 114.304 30.6088C114.192 30.4968 114.088 30.3928 113.992 30.2968C113.896 30.2008 113.776 30.1528 113.632 30.1528C113.328 30.1528 112.976 30.3608 112.576 30.7768C112.176 31.1768 111.76 31.7288 111.328 32.4328C110.896 33.1368 110.464 33.9608 110.032 34.9048C109.616 35.8488 109.232 36.8648 108.88 37.9528L107.8 41.2648H105.568L107.128 36.2968C107.432 35.3368 107.68 34.5448 107.872 33.9208C108.08 33.2808 108.24 32.7528 108.352 32.3368C108.464 31.9048 108.536 31.5688 108.568 31.3288C108.616 31.0888 108.64 30.8808 108.64 30.7048C108.64 30.3528 108.52 30.1768 108.28 30.1768C108.12 30.1768 107.92 30.2408 107.68 30.3688C107.456 30.4968 107.232 30.6568 107.008 30.8488C106.784 31.0408 106.568 31.2568 106.36 31.4968C106.168 31.7368 106.024 31.9688 105.928 32.1928L105.304 31.8808Z" fill="white"/>
<path d="M123.479 29.5528C122.871 29.5528 122.239 29.8328 121.583 30.3928C120.943 30.9528 120.359 31.6568 119.831 32.5048C119.303 33.3368 118.871 34.2408 118.535 35.2168C118.199 36.1768 118.031 37.0728 118.031 37.9048C118.031 38.4808 118.151 38.9448 118.391 39.2968C118.631 39.6328 118.959 39.8008 119.375 39.8008C119.743 39.8008 120.127 39.6568 120.527 39.3688C120.927 39.0648 121.311 38.6728 121.679 38.1928C122.063 37.6968 122.423 37.1368 122.759 36.5128C123.095 35.8888 123.391 35.2488 123.647 34.5928C123.903 33.9208 124.103 33.2648 124.247 32.6248C124.391 31.9848 124.463 31.4088 124.463 30.8968C124.463 30.4808 124.375 30.1528 124.199 29.9128C124.023 29.6728 123.783 29.5528 123.479 29.5528ZM125.951 28.5448H127.943L126.575 32.2168C126.351 32.8248 126.127 33.4728 125.903 34.1608C125.695 34.8488 125.503 35.5128 125.327 36.1528C125.167 36.7928 125.039 37.3768 124.943 37.9048C124.847 38.4328 124.799 38.8248 124.799 39.0808C124.799 39.5448 124.951 39.7768 125.255 39.7768C125.479 39.7768 125.799 39.5448 126.215 39.0808C126.647 38.6168 127.127 38.0168 127.655 37.2808L128.279 37.7848C127.607 38.9688 126.879 39.8888 126.095 40.5448C125.327 41.1848 124.583 41.5048 123.863 41.5048C123.495 41.5048 123.207 41.3688 122.999 41.0968C122.807 40.8088 122.711 40.3448 122.711 39.7048C122.711 39.5608 122.711 39.3928 122.711 39.2008C122.727 39.0088 122.751 38.7528 122.783 38.4328L122.687 38.4088C122.447 38.8568 122.159 39.2728 121.823 39.6568C121.503 40.0248 121.151 40.3528 120.767 40.6408C120.383 40.9128 119.983 41.1208 119.567 41.2648C119.151 41.4248 118.743 41.5048 118.343 41.5048C117.527 41.5048 116.887 41.2008 116.423 40.5928C115.975 39.9688 115.751 39.1128 115.751 38.0248C115.751 36.9208 115.983 35.7928 116.447 34.6408C116.911 33.4888 117.511 32.4488 118.247 31.5208C118.983 30.5768 119.799 29.8088 120.695 29.2168C121.591 28.6088 122.471 28.3048 123.335 28.3048C123.863 28.3048 124.295 28.4328 124.631 28.6888C124.967 28.9288 125.239 29.3288 125.447 29.8888L125.951 28.5448Z" fill="white"/>
<path d="M33.6608 21.5493C33.6608 22.4946 33.567 23.3774 33.3795 24.1978C33.1998 25.0103 32.9498 25.7563 32.6295 26.436C32.317 27.1157 31.942 27.7212 31.5045 28.2524C31.067 28.7759 30.5944 29.2173 30.0865 29.5767C29.5865 29.9438 29.0553 30.2212 28.4928 30.4087C27.9381 30.604 27.3795 30.7017 26.817 30.7017C26.403 30.7017 25.9615 30.6353 25.4928 30.5024C25.0319 30.3696 24.5709 30.1626 24.11 29.8813C23.6569 29.6079 23.2233 29.2563 22.8092 28.8267C22.3951 28.3892 22.028 27.8696 21.7076 27.2681C21.3873 26.6665 21.1334 25.9751 20.9459 25.1938C20.7584 24.4126 20.6647 23.5337 20.6647 22.5571C20.6647 21.5884 20.7506 20.6235 20.9225 19.6626C21.1022 18.7017 21.3795 17.7837 21.7545 16.9087C22.1295 16.0337 22.61 15.2251 23.1959 14.4829C23.7897 13.7329 24.5006 13.0884 25.3287 12.5493C25.4069 12.5024 25.485 12.479 25.5631 12.479C25.6881 12.479 25.7506 12.5337 25.7506 12.6431C25.7506 12.7134 25.7233 12.7759 25.6686 12.8306C25.6217 12.8774 25.5201 12.9829 25.3639 13.147C25.2155 13.3032 25.0397 13.5337 24.8365 13.8384C24.6334 14.1353 24.4186 14.5103 24.192 14.9634C23.9655 15.4087 23.7545 15.9517 23.5592 16.5923C23.3717 17.2251 23.2155 17.9556 23.0905 18.7837C22.9655 19.6118 22.903 20.5493 22.903 21.5962C22.903 22.8853 23.0084 23.9985 23.2194 24.936C23.4381 25.8657 23.735 26.6353 24.11 27.2446C24.485 27.854 24.9225 28.3071 25.4225 28.604C25.9303 28.8931 26.4733 29.0376 27.0514 29.0376C27.3092 29.0376 27.5905 28.9829 27.8951 28.8735C28.2076 28.7642 28.5162 28.5845 28.8209 28.3345C29.1334 28.0845 29.4342 27.7563 29.7233 27.3501C30.0123 26.936 30.2662 26.4282 30.485 25.8267C30.7115 25.2173 30.8912 24.5063 31.024 23.6938C31.1647 22.8813 31.235 21.9438 31.235 20.8813C31.235 19.9985 31.1842 19.2173 31.0826 18.5376C30.9889 17.8501 30.8639 17.2563 30.7076 16.7563C30.5514 16.2485 30.3717 15.8228 30.1686 15.479C29.9733 15.1353 29.7701 14.8579 29.5592 14.647C29.3561 14.436 29.153 14.2876 28.9498 14.2017C28.7545 14.1079 28.5826 14.061 28.4342 14.061C28.0358 14.061 27.7155 14.2681 27.4733 14.6821C27.2389 15.0884 27.1217 15.7173 27.1217 16.5688C27.1217 17.1704 27.1764 17.8384 27.2858 18.5728C27.403 19.3071 27.567 20.0454 27.778 20.7876C27.9889 21.522 28.2467 22.2251 28.5514 22.897C28.8639 23.561 29.2155 24.1196 29.6061 24.5728C29.6686 24.6509 29.6998 24.7134 29.6998 24.7603C29.6998 24.8853 29.5709 24.9478 29.3131 24.9478C29.1022 24.9478 28.8444 24.8774 28.5397 24.7368C28.2428 24.5884 27.9303 24.3774 27.6022 24.104C27.2819 23.8306 26.9615 23.4946 26.6412 23.0962C26.3287 22.6899 26.0436 22.229 25.7858 21.7134C25.5358 21.1978 25.3326 20.6274 25.1764 20.0024C25.0201 19.3774 24.942 18.7017 24.942 17.9751C24.942 17.1704 25.0514 16.4517 25.2701 15.8188C25.4967 15.1782 25.7897 14.6392 26.149 14.2017C26.5084 13.7563 26.9147 13.4204 27.3678 13.1938C27.8287 12.9595 28.2897 12.8423 28.7506 12.8423C29.0787 12.8423 29.4303 12.9126 29.8053 13.0532C30.1803 13.186 30.5475 13.397 30.9069 13.686C31.274 13.9751 31.6217 14.3501 31.9498 14.811C32.2858 15.2642 32.5787 15.8149 32.8287 16.4634C33.0865 17.104 33.2897 17.8462 33.4381 18.6899C33.5865 19.5337 33.6608 20.4868 33.6608 21.5493Z" fill="white"/>
</svg>
